<?xml version="1.0" encoding="utf-8"?>
<!-- Generator: Adobe Illustrator 19.2.1, SVG Export Plug-In . SVG Version: 6.00 Build 0)  -->
<svg version="1.1" id="Capa_1" xmlns="http://www.w3.org/2000/svg" xmlns:xlink="http://www.w3.org/1999/xlink" x="0px" y="0px"
	 viewBox="0 0 56.8 56.8" style="enable-background:new 0 0 56.8 56.8;" xml:space="preserve">
<style type="text/css">
	.st0{fill:#D01B2E;}
</style>
<g>
	<path class="st0" d="M36.3,25.3c0.1,0,0.2,0.1,0.3,0.1c0.4,0,0.8-0.3,0.9-0.7c0.3-0.9,1.3-1.4,2.2-1.1c2,0.7,4.1-0.4,4.8-2.4
		c0.2-0.5-0.1-1.1-0.6-1.3c-0.5-0.2-1.1,0.1-1.3,0.6c-0.3,0.9-1.3,1.4-2.2,1.1c-2-0.7-4.1,0.4-4.8,2.4
		C35.5,24.6,35.7,25.1,36.3,25.3z"/>
	<path class="st0" d="M38.6,18.3c0.1,0,0.2,0.1,0.3,0.1c0.4,0,0.8-0.3,0.9-0.7c0.2-0.4,0.5-0.8,0.9-1s0.9-0.2,1.3-0.1
		c2,0.7,4.1-0.4,4.8-2.4c0.2-0.5-0.1-1.1-0.6-1.3c-0.5-0.2-1.1,0.1-1.3,0.6c-0.3,0.9-1.3,1.4-2.2,1.1c-1-0.3-2-0.3-2.9,0.2
		c-0.9,0.4-1.6,1.2-1.9,2.2C37.8,17.6,38.1,18.2,38.6,18.3z"/>
	<path class="st0" d="M41,11.4c0.1,0,0.2,0.1,0.3,0.1c0.4,0,0.8-0.3,0.9-0.7c0.2-0.7,1-1,1.6-0.8c0.8,0.3,1.7,0.2,2.5-0.2
		c0.8-0.4,1.4-1.1,1.7-1.9c0.2-0.5-0.1-1.1-0.6-1.3c-0.5-0.2-1.1,0.1-1.3,0.6c-0.1,0.3-0.3,0.6-0.7,0.7c-0.3,0.2-0.7,0.2-1,0.1
		c-1.7-0.6-3.6,0.3-4.2,2.1C40.2,10.6,40.5,11.2,41,11.4z"/>
	<path class="st0" d="M48.2,25.2c-0.2-0.1-0.4-0.2-0.6-0.2c2-6.5,3.1-12.8,3.2-18.8c0-1.9-0.9-4.4-2.7-5.6c-0.9-0.6-2.4-1-4.3,0
		c-3,1.5-5.1,6.1-6.8,9.7c-0.1,0.2-0.2,0.4-0.3,0.6c-0.4-1.7-1.5-3.2-3.2-4c-0.4-1.9-1.9-3.3-3.7-3.7c0-0.1,0-0.2-0.1-0.3
		c-0.4-1.3-1.5-2.3-2.9-2.4c-0.7-0.1-1.5,0.1-2.1,0.4c-0.5-0.3-1.1-0.5-1.8-0.5c-1.7,0-3.2,1.2-3.6,2.8c-1.9,0.5-3.3,2.3-3.3,4.3
		c-2.2,0.6-3.7,2.5-3.7,4.9c0,0.6,0.1,1.2,0.3,1.8c-0.6,0.7-0.9,1.6-0.9,2.5c0,0.5,0.1,1.1,0.3,1.6c-1-1.1-2.4-2-4-1.9
		c-0.6,0-1,0.5-1,1c0,0.5,0.5,1,1,1c0,0,0.1,0,0.1,0c0.9,0,1.8,0.6,2.4,1.3c-1.6,0.5-3.5,1.2-4.4,2.9c-0.5,1-0.6,2.3-0.2,3.7
		c-0.2,0.3-0.3,0.6-0.3,1l1.7,24.2c0.2,3,2.7,5.4,5.7,5.4h28.1c3,0,5.5-2.4,5.7-5.4l1.7-25c0,0,0,0,0,0
		C48.8,25.9,48.6,25.5,48.2,25.2z M37.6,13.8c0.4-0.7,0.8-1.7,1.3-2.6c1.5-3.2,3.6-7.6,5.9-8.8c0.9-0.4,1.6-0.5,2.3,0
		c1.2,0.7,1.8,2.6,1.8,3.9c-0.2,5.9-1.2,12.1-3.2,18.5c-0.1,0.2-0.2,0.6-0.4,1.2l-1.7,0.8c0,0-0.1,0-0.1,0.1c-0.5,0.3-1,0.4-1.6,0.4
		c-0.6,0-1.1-0.2-1.6-0.4l-0.7-0.4c-0.8-0.5-1.7-0.7-2.7-0.7c0,0,0,0,0,0c-0.9,0-1.9,0.2-2.7,0.7l-0.7,0.4c-0.4,0.2-0.8,0.4-1.3,0.4
		c0-0.1,0.1-0.2,0.1-0.3c0.3-0.9,0.6-1.8,0.9-2.8c0.1-0.3,0.2-0.7,0.4-1c0.3-0.7,0.5-1.4,0.8-2.1c0.1-0.3,0.2-0.6,0.4-1
		C35.6,17.8,36.5,15.7,37.6,13.8z M24.8,16.1c0.1-0.1,0.2-0.3,0.3-0.4c0,0,0,0,0,0c0.1-0.1,0.1-0.2,0.2-0.3c0.2-0.5,0.3-1,0.2-1.5
		l4.2-0.9c0,0.1,0.1,0.3,0.1,0.4c0.2,0.5,0.5,0.8,1,1.1c0.2,0.1,0.3,0.2,0.5,0.3c0.1,0.1,0.3,0.1,0.4,0.2c0.1,0,0.1,0.1,0.2,0.1
		c0.1,0.1,0.2,0.1,0.3,0.2c0.1,0.1,0.2,0.1,0.3,0.2c0.1,0.1,0.2,0.2,0.3,0.2c0.1,0.1,0.2,0.2,0.3,0.2c0.1,0.1,0.2,0.2,0.3,0.3
		c0.2,0.2,0.3,0.4,0.4,0.6c-0.4,0.9-0.8,1.9-1.2,2.9c-0.1,0.1-0.1,0.3-0.2,0.4c-1.1,0.3-2.2,0.8-3.5,1.7c-1.6,1.2-2.9,1.5-4.9,1.2
		l-0.6-2.8C23.1,18.4,24,17.2,24.8,16.1z M29.8,10.1C29.8,10.1,29.8,10.1,29.8,10.1c0.3,0,0.4,0.1,0.5,0.3c0,0.1,0,0.3-0.1,0.3
		c0,0.1-0.1,0.1-0.3,0.2l-5.5,1.2c-0.2,0-0.4-0.1-0.5-0.3c0-0.2,0.1-0.4,0.3-0.5l2.9-0.6L29.8,10.1z M26.6,25.5c-0.1,0-0.2,0-0.2,0
		c-0.5,0.1-1.1,0.2-1.6,0.4l-0.2-0.9c0.3,0,0.6,0,0.8,0c1.7,0,3.1-0.5,4.8-1.7c0.5-0.4,1-0.6,1.4-0.9c-0.1,0.3-0.2,0.5-0.3,0.8
		c-0.1,0.2-0.1,0.4-0.2,0.6c-0.3,0.9-0.6,1.8-0.8,2.7l-0.7-0.4c-0.8-0.5-1.7-0.7-2.7-0.7c0,0,0,0,0,0C26.8,25.5,26.7,25.5,26.6,25.5
		z M14.6,15.2l0.7-0.5l-0.4-0.7c-0.3-0.5-0.4-1-0.4-1.5c0-1.6,1.3-2.9,2.9-3l1.2-0.1l-0.3-1.2c0-0.2-0.1-0.4-0.1-0.6
		c0-1.3,1-2.4,2.3-2.5l0.9-0.1v-1c0-0.9,0.8-1.6,1.7-1.6c0.5,0,0.9,0.2,1.1,0.4l0.7,0.6l0.7-0.7c0.3-0.3,0.7-0.4,1.2-0.4
		c0.5,0.1,1,0.5,1.2,1c0.1,0.2,0.1,0.4,0,0.5l-0.1,1.1h1.1c1.4,0,2.6,1.1,2.7,2.6l0,0.7l0.6,0.2c1.6,0.5,2.6,2,2.6,3.7
		c0,0.7-0.2,1.4-0.7,2c-0.7-0.6-1.4-1-2-1.3c-0.2-0.1-0.3-0.2-0.5-0.2c0,0-0.1-0.1-0.1-0.2c0-0.1,0-0.3,0.1-0.4
		c0.4-0.5,0.6-1.2,0.5-1.8l-0.1-0.6c-0.1-0.6-0.5-1-0.9-1.3c-0.5-0.3-1-0.4-1.6-0.3l-0.3,0.1c0,0,0,0,0,0l-2.9,0.6l-2.9,0.6
		c-0.6,0.1-1,0.5-1.3,0.9c-0.3,0.5-0.4,1.1-0.3,1.6l0.1,0.3c0,0,0,0,0,0s0,0,0,0l0.1,0.3c0.1,0.7,0.6,1.2,1.2,1.5
		c0.2,0.1,0.3,0.2,0.3,0.3c0,0.1,0,0.1,0,0.2c0,0,0,0,0,0c-0.1,0.1-0.2,0.3-0.3,0.4c-0.1,0.1-0.2,0.3-0.3,0.4c0,0.1-0.1,0.1-0.1,0.2
		c-0.1,0.1-0.2,0.2-0.2,0.3c0,0.1-0.1,0.1-0.1,0.2c-0.1,0.1-0.1,0.2-0.2,0.4c0,0.1-0.1,0.1-0.1,0.2c-0.1,0.1-0.1,0.3-0.2,0.4
		c0,0.1-0.1,0.1-0.1,0.2c-0.1,0.2-0.2,0.4-0.2,0.7c0,0,0,0.1,0,0.1c0,0.2-0.1,0.4-0.1,0.6c0,0.1,0,0.2,0,0.3c0,0.1,0,0.2,0,0.4
		c0,0,0,0,0,0c0,0,0,0,0-0.1c-0.2-0.2-0.3-0.4-0.5-0.6c-0.1-0.1-0.1-0.1-0.2-0.2c-0.1-0.2-0.3-0.3-0.4-0.4c0,0-0.1-0.1-0.1-0.1
		c-0.2-0.2-0.4-0.3-0.6-0.5c-0.1,0-0.1-0.1-0.2-0.1c-0.1-0.1-0.3-0.2-0.4-0.3c-0.1,0-0.1-0.1-0.2-0.1c-0.1-0.1-0.3-0.1-0.5-0.2
		c0,0-0.1,0-0.1-0.1c-0.2-0.1-0.3-0.1-0.5-0.1c0,0,0,0-0.1,0c0,0-0.1,0-0.1,0c-0.1,0-0.2,0-0.3,0c-0.1,0-0.2,0-0.2,0c0,0,0,0-0.1,0
		c-0.2,0-0.3,0-0.5,0c-0.1,0-0.1,0-0.2,0c-0.2,0-0.4,0.1-0.6,0.1c0,0-0.1,0-0.1,0c-0.5,0.2-1,0.4-1.4,0.7c-0.1-0.2-0.1-0.5-0.1-0.7
		C13.9,16.1,14.1,15.6,14.6,15.2z M8.2,23.5c0.4-0.8,1.4-1.4,3.2-1.9c0.8-0.2,1.6-0.7,2.2-1.3c0.3-0.3,0.6-0.5,0.8-0.7
		c0.8-0.7,1.5-1,2.1-1.1c0,0,0,0,0,0c0.2,0,0.4,0,0.6,0c0,0,0.1,0,0.1,0c0.1,0,0.2,0,0.3,0.1c0.1,0,0.1,0.1,0.2,0.1
		c0.1,0,0.2,0.1,0.3,0.1c0.1,0,0.1,0.1,0.2,0.1c0.1,0.1,0.2,0.1,0.2,0.2c0.1,0.1,0.2,0.1,0.2,0.2s0.2,0.1,0.2,0.2
		c0.1,0.1,0.2,0.2,0.3,0.3c0.1,0.1,0.1,0.1,0.2,0.2c0.1,0.1,0.2,0.2,0.3,0.4c0.1,0.1,0.1,0.2,0.2,0.2c0.1,0.2,0.2,0.3,0.3,0.5
		c0,0.1,0.1,0.1,0.1,0.2c0.2,0.3,0.3,0.5,0.5,0.8c0.7,1.3,1,3.2,0.7,4.9c-0.1,0-0.1,0-0.2,0c-0.4-0.1-0.7-0.2-1.1-0.4l-0.7-0.4
		c-0.8-0.5-1.7-0.7-2.7-0.7c0,0,0,0,0,0c-0.9,0-1.9,0.2-2.7,0.7l-0.3,0.2c-0.6,0.4-1.3,0.5-2,0.6c-0.7,0-1.4-0.2-2-0.6l-1.3-0.8
		c0,0,0,0,0,0c-0.2-0.1-0.4-0.2-0.6-0.2C7.8,24.6,7.9,24,8.2,23.5z M45.1,51.3c-0.1,2-1.7,3.5-3.7,3.5H13.3c-2,0-3.6-1.5-3.7-3.5
		L7.9,27.7l0.9,0.5c0.9,0.6,2,0.8,3.1,0.8c1.1,0,2.1-0.3,3.1-0.8l0.3-0.2c0.5-0.3,1-0.4,1.6-0.4c0.6,0,1.1,0.2,1.6,0.4l0.7,0.4
		c0.9,0.5,1.9,0.8,2.9,0.7c0.1,0,0.2,0,0.3,0c0,0,0,0,0,0c0.7-0.1,1.4-0.3,2-0.6c0.1,0,0.1,0,0.2-0.1l0.7-0.4c0.5-0.3,1-0.4,1.6-0.4
		c0.6,0,1.1,0.2,1.6,0.4l0.7,0.4c0.8,0.5,1.6,0.7,2.4,0.7c0,0,0,0,0.1,0c0.3,0,0.6,0,0.9,0c0.2,0,0.3-0.1,0.5-0.1
		c0.1,0,0.2,0,0.2-0.1c0.4-0.1,0.9-0.3,1.3-0.5l0,0l0.7-0.4c0.5-0.3,1-0.4,1.6-0.4c0.6,0,1.1,0.2,1.6,0.4l0.7,0.4
		c0.8,0.5,1.8,0.7,2.7,0.7c0,0,0,0,0,0c0.9,0,1.8-0.2,2.6-0.7l2-0.9c0,0,0.1-0.1,0.1-0.1l0.2-0.1L45.1,51.3z"/>
	<path class="st0" d="M11.9,43h7c0.6,0,1-0.4,1-1s-0.4-1-1-1h-7c-0.6,0-1,0.4-1,1S11.4,43,11.9,43z"/>
	<path class="st0" d="M11.9,47h9c0.6,0,1-0.4,1-1s-0.4-1-1-1h-9c-0.6,0-1,0.4-1,1S11.4,47,11.9,47z"/>
	<path class="st0" d="M22.9,49h-11c-0.6,0-1,0.4-1,1s0.4,1,1,1h11c0.6,0,1-0.4,1-1S23.5,49,22.9,49z"/>
	<path class="st0" d="M28.9,49h-2c-0.6,0-1,0.4-1,1s0.4,1,1,1h2c0.6,0,1-0.4,1-1S29.5,49,28.9,49z"/>
</g>
</svg>
