<?xml version="1.0" encoding="utf-8"?>
<!-- Generator: Adobe Illustrator 19.2.1, SVG Export Plug-In . SVG Version: 6.00 Build 0)  -->
<svg version="1.1" id="Capa_1" xmlns="http://www.w3.org/2000/svg" xmlns:xlink="http://www.w3.org/1999/xlink" x="0px" y="0px"
	 viewBox="0 0 56 56" style="enable-background:new 0 0 56 56;" xml:space="preserve">
<style type="text/css">
	.st0{fill:#BB1F2F;}
	.st1{fill:#FFFFFF;}
</style>
<circle class="st0" cx="28" cy="28" r="28"/>
<path class="st1" d="M30.4,37.5c-0.6,0.6-1.5,1-2.4,1s-1.8-0.4-2.4-1l-1.3,1.3c1,1,2.3,1.5,3.7,1.5c1.4,0,2.7-0.5,3.7-1.5L30.4,37.5
	z M25.6,33.4c0.5,0,0.9,0.4,0.9,0.9s-0.4,0.9-0.9,0.9s-0.9-0.4-0.9-0.9S25,33.4,25.6,33.4z M30.4,33.4c0.5,0,0.9,0.4,0.9,0.9
	s-0.4,0.9-0.9,0.9c-0.5,0-0.9-0.4-0.9-0.9S29.9,33.4,30.4,33.4z M37.7,30.4c-0.8-2.3-2.3-4.2-4.3-5.5l-4.2-8.3
	c0.7-0.4,1.2-1.2,1.2-2.1c0-1.4-1.1-2.5-2.5-2.5c-1.4,0-2.5,1.1-2.5,2.5c0,0.9,0.5,1.7,1.2,2.1l-4.2,8.3c-2,1.3-3.5,3.2-4.3,5.5
	c-1.3,0.5-2.3,1.8-2.3,3.3c0,1.5,0.9,2.8,2.3,3.3c0.6,1.9,1.9,3.6,3.5,4.9c1.8,1.4,4,2.1,6.3,2.1s4.4-0.7,6.3-2.1
	c1.6-1.2,2.8-3,3.5-4.9c1.3-0.5,2.3-1.8,2.3-3.3C40,32.2,39.1,30.9,37.7,30.4z M28,18.2l3.3,6.5h-6.5L28,18.2z M23.4,26.6h9.3
	c1.3,0.9,2.4,2.1,3,3.6c-3.6-0.3-5.8-2-5.9-2.1l-0.6-0.5l-0.6,0.5c-2.8,2.2-6.5,2.3-8.4,2.2C20.9,28.8,22,27.5,23.4,26.6z
	 M36.8,35.3l-0.6,0.1l-0.2,0.6c-1,3.6-4.3,6.2-8.1,6.2s-7.1-2.5-8.1-6.2l-0.2-0.6l-0.6-0.1c-0.8-0.1-1.3-0.8-1.3-1.6
	c0-0.7,0.5-1.4,1.2-1.6c0.4,0.1,1.1,0.1,2.2,0.1c2.1,0,5.3-0.4,8-2.2c1.1,0.7,3.7,2.1,7.3,2.1c0.1,0,0.2,0,0.3,0
	c0.7,0.2,1.2,0.8,1.2,1.6C38.1,34.5,37.6,35.1,36.8,35.3z"/>
</svg>
