<?xml version="1.0" encoding="utf-8"?>
<!-- Generator: Adobe Illustrator 19.2.1, SVG Export Plug-In . SVG Version: 6.00 Build 0)  -->
<svg version="1.1" id="Capa_1" xmlns="http://www.w3.org/2000/svg" xmlns:xlink="http://www.w3.org/1999/xlink" x="0px" y="0px"
	 viewBox="0 0 60 60" style="enable-background:new 0 0 60 60;" xml:space="preserve">
<style type="text/css">
	.st0{fill:#D01B2E;}
</style>
<g>
	<path class="st0" d="M18.4,20.8c0.2,0.2,0.5,0.3,0.7,0.3s0.5-0.1,0.7-0.3c0.4-0.4,0.4-1,0-1.4c-1-1-1-2.7,0-3.7
		c0.9-0.9,1.4-2,1.4-3.3s-0.5-2.4-1.4-3.3c-0.4-0.4-1-0.4-1.4,0s-0.4,1,0,1.4c0.5,0.5,0.8,1.1,0.8,1.8s-0.3,1.4-0.8,1.8
		C16.6,16.1,16.6,19,18.4,20.8z"/>
	<path class="st0" d="M40.3,20.8c0.2,0.2,0.5,0.3,0.7,0.3s0.5-0.1,0.7-0.3c0.4-0.4,0.4-1,0-1.4c-1-1-1-2.7,0-3.7
		c0.9-0.9,1.3-2,1.3-3.3s-0.5-2.4-1.3-3.3c-0.4-0.4-1-0.4-1.4,0s-0.4,1,0,1.4c0.5,0.5,0.8,1.1,0.8,1.8s-0.3,1.4-0.8,1.8
		C38.6,16.1,38.6,19,40.3,20.8z"/>
	<path class="st0" d="M29.4,14.8c0.2,0.2,0.5,0.3,0.7,0.3s0.5-0.1,0.7-0.3c0.4-0.4,0.4-1,0-1.4c-1-1-1-2.7,0-3.7
		c0.9-0.9,1.4-2,1.4-3.3s-0.5-2.4-1.4-3.3c-0.4-0.4-1-0.4-1.4,0s-0.4,1,0,1.4c0.5,0.5,0.8,1.1,0.8,1.8s-0.3,1.3-0.8,1.8
		C27.6,10.1,27.6,13,29.4,14.8z"/>
	<path class="st0" d="M25.3,28.6c0.1,0,0.1,0,0.2,0c1.4-0.3,2.9-0.5,4.4-0.5c0,0,0,0,0,0l0,0c0.6,0,1-0.4,1-1c0-0.6-0.4-1-1-1
		c0,0,0,0,0,0c-1.6,0-3.3,0.2-4.9,0.5c-0.5,0.1-0.9,0.7-0.8,1.2C24.5,28.3,24.9,28.6,25.3,28.6z"/>
	<path class="st0" d="M9.8,45.1c0.1,0,0.1,0,0.2,0c0.5,0,0.9-0.3,1-0.8c1-5.7,4.5-10.8,9.2-13.6c0.5-0.3,0.6-0.9,0.4-1.4
		c-0.3-0.5-0.9-0.6-1.4-0.4c-5.2,3.1-9,8.7-10.1,14.9C8.9,44.5,9.3,45,9.8,45.1z"/>
	<path class="st0" d="M55.6,43.7C53.8,33.1,45.5,24.6,35,22.6c0-0.2,0-0.3,0-0.5c0-2.8-2.2-5-5-5s-5,2.2-5,5c0,0.2,0,0.3,0,0.5
		c-10.6,2-18.9,10.5-20.7,21.1C2.3,44.9,0,46.6,0,48.6c0,5.1,15.5,8.5,30,8.5s30-3.4,30-8.5C60,46.6,57.7,44.9,55.6,43.7z M27,22.3
		c0-0.1,0-0.1,0-0.2c0-1.7,1.3-3,3-3s3,1.3,3,3c0,0.1,0,0.1,0,0.2c0,0-0.1,0-0.1,0c-0.3,0-0.7-0.1-1-0.1c-0.1,0-0.3,0-0.4,0
		c-0.5,0-1,0-1.4,0s-1,0-1.4,0c-0.1,0-0.3,0-0.4,0c-0.3,0-0.7,0.1-1,0.1C27.1,22.3,27.1,22.3,27,22.3z M26.4,24.4
		c0.5-0.1,1.1-0.1,1.6-0.2c0.1,0,0.2,0,0.3,0c1.1-0.1,2.2-0.1,3.3,0c0.1,0,0.2,0,0.3,0c0.5,0,1.1,0.1,1.6,0.2
		c10.4,1.6,18.7,9.9,20.2,20.3c0,0.3,0.1,0.6,0.1,1c0,0.1,0,0.2,0,0.3c0,0.4,0.1,0.9,0.1,1.3C38.3,51,21.7,51,6,47.3
		c0-0.4,0-0.9,0.1-1.3c0-0.1,0-0.2,0-0.3c0-0.3,0.1-0.6,0.1-1C7.7,34.2,16,25.9,26.4,24.4z M30,55.1c-17.1,0-28-4.3-28-6.5
		c0-0.4,0.5-1.2,2.1-2.3c0,0.1,0,0.1,0,0.2C4,47,4,47.5,4,48.1v0.8l0.8,0.2c8.3,2,16.7,3,25.2,3s17-1,25.2-3l0.8-0.2v-0.8
		c0-0.6,0-1.1-0.1-1.7c0-0.1,0-0.1,0-0.2c1.6,1.1,2.1,1.9,2.1,2.3C58,50.8,47.1,55.1,30,55.1z"/>
</g>
</svg>
