<?xml version="1.0" encoding="utf-8"?>
<!-- Generator: Adobe Illustrator 19.2.1, SVG Export Plug-In . SVG Version: 6.00 Build 0)  -->
<svg version="1.1" id="Capa_1" xmlns="http://www.w3.org/2000/svg" xmlns:xlink="http://www.w3.org/1999/xlink" x="0px" y="0px"
	 viewBox="0 0 56 56" style="enable-background:new 0 0 56 56;" xml:space="preserve">
<style type="text/css">
	.st0{fill:#BB1F2F;}
	.st1{fill:#FFFFFF;}
</style>
<circle class="st0" cx="28" cy="28" r="28"/>
<path class="st1" d="M22.1,17.8c-0.1,0.3-0.1,0.5,0,0.8l0.3,0.6l-4,1.6c-0.3,0.1-0.6,0.5-0.6,0.8c0,0.4,0.2,0.7,0.5,0.9l0.8,0.4
	l-2.1,1.5c-0.4,0.3-0.5,0.8-0.3,1.2l0.6,1.2l-1.8,2.7c-0.3,0.4-0.2,0.9,0.2,1.2l0.4,0.3c-1,1.4-2.2,3.1-2.3,3.3
	c-0.2,0.3-0.3,0.7-0.1,1c0.2,0.3,0.5,0.5,0.9,0.5c0.3,0,2.3,0,4,0l0,0.5c0,0.5,0.4,0.9,0.9,0.9l3.2,0.1l0.6,1.2
	c0.2,0.4,0.7,0.6,1.1,0.4l2.5-0.9l-0.1,0.9c-0.1,0.4,0.1,0.7,0.4,0.9c0.3,0.2,0.7,0.2,1,0l3.6-2.3l0.3,0.6c0.1,0.2,0.3,0.4,0.6,0.5
	c0.3,0.1,0.5,0,0.8-0.1c0.1-0.1,2.3-1.7,4.1-4.4c2.2-3.5,2.5-7.1,0.9-10.7l0.9-0.5c1.7-0.9,2.4-3,1.5-4.6c-0.2-0.5-0.8-0.6-1.3-0.4
	c-0.5,0.2-0.6,0.8-0.4,1.3c0.4,0.8,0.1,1.7-0.7,2.1l-0.9,0.5c-1.9-3.3-5.1-5.2-9.2-5.4c-3.2-0.2-5.8,0.7-5.9,0.8
	C22.4,17.3,22.2,17.5,22.1,17.8z M28.4,28.8c-0.5,1.9-1,4-1,4.1c-0.1,0.5,0.2,1,0.7,1.1c0.5,0.1,1-0.2,1.1-0.7
	c0-0.2,0.8-3.4,1.4-5.6l2.9-1.5c-0.6,2.5-1.5,6-1.5,6.1c-0.1,0.5,0.2,1,0.7,1.1c0.5,0.1,1-0.2,1.1-0.7c0.1-0.2,1.4-5.5,1.9-7.6
	l1.3-0.7c1.3,2.9,1,5.9-0.8,8.8c-0.9,1.4-2,2.5-2.7,3.2l-0.3-0.5c-0.1-0.2-0.3-0.4-0.6-0.5s-0.5,0-0.7,0.1l-2.7,1.7l0.1-0.4
	c0.1-0.3-0.1-0.7-0.3-0.9c-0.3-0.2-0.6-0.3-0.9-0.2l-3.2,1.1l-0.5-1c-0.2-0.3-0.5-0.5-0.8-0.5l-2.9-0.1l0-0.5c0-0.5-0.4-0.9-0.9-0.9
	c-0.4,0-0.8,0-1.2,0l5.3-2.7c-0.5,1.9-0.5,2-0.5,2c-0.1,0.5,0.2,1,0.7,1.1c0.5,0.1,1-0.2,1.1-0.7c0-0.1,0.5-2.1,0.9-3.5L28.4,28.8
	L28.4,28.8z M28.5,18.3c3.4,0.2,6,1.7,7.6,4.4l-1.3,0.7c-2-0.8-7-2.8-7.3-2.9c-0.5-0.2-1,0-1.2,0.5c-0.2,0.5,0,1,0.5,1.2
	c0.1,0,3.4,1.4,5.8,2.3l-2.9,1.5c-2.1-0.8-5.2-2.1-5.4-2.1c-0.5-0.2-1,0-1.2,0.5c-0.2,0.5,0,1,0.5,1.2c0.1,0,2.1,0.8,3.9,1.6
	l-2.4,1.2c-1.3-0.5-3.2-1.3-3.3-1.3c-0.5-0.2-1,0-1.2,0.5c-0.2,0.5,0,1,0.5,1.2c0,0,0.1,0,1.9,0.8l-5.3,2.7c0.2-0.3,0.4-0.6,0.7-1
	c0.3-0.4,0.2-1-0.2-1.3l-0.4-0.3l1.6-2.4c0.2-0.3,0.2-0.6,0.1-0.9l-0.5-1l2.8-1.9c0.3-0.2,0.4-0.5,0.4-0.8c0-0.3-0.2-0.6-0.5-0.8
	l-0.4-0.2l3-1.2c0.2-0.1,0.4-0.3,0.5-0.5c0.1-0.2,0.1-0.5,0-0.7l-0.3-0.5C25.3,18.5,26.8,18.2,28.5,18.3z"/>
</svg>
