<?xml version="1.0" encoding="utf-8"?>
<!-- Generator: Adobe Illustrator 19.2.1, SVG Export Plug-In . SVG Version: 6.00 Build 0)  -->
<svg version="1.1" id="Capa_1" xmlns="http://www.w3.org/2000/svg" xmlns:xlink="http://www.w3.org/1999/xlink" x="0px" y="0px"
	 viewBox="0 0 56 56" style="enable-background:new 0 0 56 56;" xml:space="preserve">
<style type="text/css">
	.st0{fill:#BB1F2F;}
	.st1{fill:#FFFFFF;}
</style>
<circle class="st0" cx="28" cy="28" r="28"/>
<path class="st1" d="M28,13c-6.1,0-11,5-11,11.3c0,2.1,0.6,4.1,1.6,5.9l8.7,14.4c0.2,0.3,0.5,0.4,0.8,0.4c0,0,0,0,0,0
	c0.3,0,0.6-0.2,0.8-0.5L37.4,30c1-1.7,1.6-3.7,1.6-5.8C39,18,34.1,13,28,13z M35.9,29.1l-7.7,13.2l-7.9-13.1
	c-0.9-1.5-1.4-3.2-1.4-4.9c0-5.2,4.1-9.4,9.2-9.4s9.2,4.2,9.2,9.4C37.2,25.9,36.7,27.6,35.9,29.1z M28,18.6c-3,0-5.5,2.5-5.5,5.6
	c0,3.1,2.4,5.6,5.5,5.6c3.1,0,5.5-2.6,5.5-5.6C33.5,21.1,31,18.6,28,18.6z M28,28c-2,0-3.7-1.7-3.7-3.8c0-2.1,1.7-3.8,3.7-3.8
	s3.7,1.7,3.7,3.8C31.7,26.3,30.1,28,28,28z"/>
</svg>
