<?xml version="1.0" encoding="utf-8"?>
<!-- Generator: Adobe Illustrator 19.2.1, SVG Export Plug-In . SVG Version: 6.00 Build 0)  -->
<svg version="1.1" id="Capa_1" xmlns="http://www.w3.org/2000/svg" xmlns:xlink="http://www.w3.org/1999/xlink" x="0px" y="0px"
	 viewBox="0 0 56 56" style="enable-background:new 0 0 56 56;" xml:space="preserve">
<style type="text/css">
	.st0{fill:#BB1F2F;}
	.st1{fill:#FFFFFF;}
</style>
<circle class="st0" cx="28" cy="28" r="28"/>
<path class="st1" d="M39.4,16.8c-0.3-0.6-0.6-1.2-1-1.7c-1.2-1.3-2.8-2.1-4.5-2.1H22.2c-1.7,0-3.4,0.8-4.5,2.1
	c-0.4,0.5-0.8,1.1-1,1.7C15,17,13.8,18.6,14,20.3l1.5,14c0.1,0.9,0.6,1.7,1.3,2.2l-0.6,6.2c-0.1,0.7,0.2,1.3,0.7,1.8
	c0.4,0.3,0.8,0.5,1.2,0.5c0.2,0,0.4,0,0.6-0.1c0.6-0.2,1-0.6,1.2-1.2l2.3-6.6h11.4l2.3,6.6c0.2,0.6,0.7,1,1.2,1.2
	c0.2,0.1,0.4,0.1,0.6,0.1c0.4,0,0.9-0.2,1.2-0.5c0.5-0.4,0.8-1.1,0.7-1.8l-0.6-6.2c0.7-0.5,1.2-1.3,1.3-2.2l1.5-14
	C42.2,18.6,41,17,39.4,16.8z M19,16.4c0.8-0.9,2-1.5,3.2-1.5h11.6c1.2,0,2.4,0.5,3.2,1.5c0.2,0.2,0.4,0.5,0.5,0.8
	c-0.2,0.1-0.3,0.2-0.5,0.3c-0.6,0.5-1,1.3-1.1,2.1l0,0.3l-0.6,5.4H20.7l-0.6-5.4l0-0.3c-0.1-0.8-0.5-1.6-1.1-2.1
	c-0.1-0.1-0.3-0.2-0.5-0.3C18.6,16.9,18.8,16.6,19,16.4z M35.1,27.2l-0.4,3.6H21.3l-0.4-3.6H35.1z M18.3,43
	C18.3,43.1,18.2,43.1,18.3,43c-0.1,0.1-0.2,0.1-0.2,0.1c0,0-0.1-0.1-0.1-0.1l0.6-5.9h1.8L18.3,43z M37.9,43.1c0,0-0.1,0-0.1,0
	c0,0-0.1,0-0.1-0.1l-2.1-5.9h1.8L38,43C38,43,38,43.1,37.9,43.1z M40.2,20.1l-1.5,14c-0.1,0.6-0.6,1.1-1.2,1.1H18.5
	c-0.6,0-1.2-0.5-1.2-1.1l-1.5-14c-0.1-0.7,0.4-1.3,1.1-1.4c0,0,0.1,0,0.1,0c0.3,0,0.5,0.1,0.8,0.3c0.3,0.2,0.4,0.5,0.5,0.9l1.3,12.1
	c0.1,0.5,0.4,0.8,0.9,0.8h15.1c0.5,0,0.8-0.4,0.9-0.8l1.3-12.1c0-0.3,0.2-0.6,0.5-0.9c0.3-0.2,0.6-0.3,0.9-0.3c0,0,0,0,0,0
	C39.8,18.7,40.3,19.4,40.2,20.1z"/>
</svg>
