<svg xmlns="http://www.w3.org/2000/svg" width="15" height="17" viewBox="0 0 15 17">
  <defs>
    <style>
      .cls-1 {
        fill: #1a2432;
        fill-rule: evenodd;
      }
    </style>
  </defs>
  <path id="_" data-name="" class="cls-1" d="M800.786,3095.62a3.113,3.113,0,0,1,2.277.93,3.194,3.194,0,0,1,0,4.52,3.252,3.252,0,0,1-4.554,0,3.059,3.059,0,0,1-.938-2.26,3.511,3.511,0,0,1,.067-0.69l-3.415-2.13a3.242,3.242,0,0,1-4.285-.23,3.192,3.192,0,0,1,0-4.52,3.242,3.242,0,0,1,4.285-.23l3.415-2.13a3.511,3.511,0,0,1-.067-0.69,3.059,3.059,0,0,1,.938-2.26,3.252,3.252,0,0,1,4.554,0,3.194,3.194,0,0,1,0,4.52,3.1,3.1,0,0,1-2.277.92,3.142,3.142,0,0,1-2.009-.69l-3.415,2.12a3.7,3.7,0,0,1,0,1.4l3.415,2.12A3.151,3.151,0,0,1,800.786,3095.62Z" transform="translate(-789 -3085)"/>
</svg>
