<?xml version="1.0" encoding="utf-8"?>
<!-- Generator: Adobe Illustrator 19.2.1, SVG Export Plug-In . SVG Version: 6.00 Build 0)  -->
<svg version="1.1" id="Capa_1" xmlns="http://www.w3.org/2000/svg" xmlns:xlink="http://www.w3.org/1999/xlink" x="0px" y="0px"
	 viewBox="0 0 480.6 480.6" style="enable-background:new 0 0 480.6 480.6;" xml:space="preserve">
<style type="text/css">
	.st0{fill:#1A2432;}
</style>
<path class="st0" d="M471.2,200c-34.9-127.1-147-154.5-147-154.5L240.3,318L156.4,45.5c0,0-112.1,27.4-147,154.5
	c-39.5,143.8,58.5,235,58.5,235s67,0,105,0c-133-79-144-194.5-109.5-266.5s71.5-68.5,78.5-46S240.3,426,240.3,426
	s91.4-281,98.4-303.5s44-26,78.5,46S440.7,356,307.7,435c38,0,105,0,105,0S510.7,343.8,471.2,200z"/>
</svg>
