<?xml version="1.0" encoding="utf-8"?>
<!-- Generator: Adobe Illustrator 19.2.1, SVG Export Plug-In . SVG Version: 6.00 Build 0)  -->
<svg version="1.1" id="Слой_1" xmlns="http://www.w3.org/2000/svg" xmlns:xlink="http://www.w3.org/1999/xlink" x="0px" y="0px"
	 viewBox="0 0 12 12" style="enable-background:new 0 0 12 12;" xml:space="preserve">
<style type="text/css">
	.st0{fill:#1A2432;}
</style>
<path class="st0" d="M6.9,6l5-5c0.1-0.1,0.1-0.3,0-0.4l-0.5-0.5C11.3,0,11.1,0,11,0.1l-5,5l-5-5C0.9,0,0.7,0,0.6,0.1L0.1,0.6
	C0,0.7,0,0.9,0.1,1l5,5l-5,5c-0.1,0.1-0.1,0.3,0,0.4l0.5,0.5C0.7,12,0.9,12,1,11.9l5-5l5,5c0.1,0.1,0.3,0.1,0.4,0l0.5-0.5
	c0.1-0.1,0.1-0.3,0-0.4L6.9,6z"/>
</svg>
