<?xml version="1.0" encoding="utf-8"?>
<!-- Generator: Adobe Illustrator 19.2.1, SVG Export Plug-In . SVG Version: 6.00 Build 0)  -->
<svg version="1.1" id="Capa_1" xmlns="http://www.w3.org/2000/svg" xmlns:xlink="http://www.w3.org/1999/xlink" x="0px" y="0px"
	 viewBox="0 0 233.8 233.8" style="enable-background:new 0 0 233.8 233.8;" xml:space="preserve">
<style type="text/css">
	.st0{fill:#48505B;}
</style>
<path class="st0" d="M232.3,128.6l-18.8-24.8c-2.5-3.4-6.3-5.3-10.2-5.3s-7.7,1.9-10.2,5.3l-18.8,24.8c-2.5,3.3-1.8,8,1.5,10.5
	c3.3,2.5,8,1.8,10.5-1.5l10.2-13.5c-3.7,46.8-42.9,83.8-90.6,83.8c-50.1,0-90.9-40.8-90.9-90.9C15,66.8,55.8,26,105.9,26
	c10.3,0,20.5,1.7,30.1,5.1c3.9,1.4,8.2-0.7,9.6-4.6c1.4-3.9-0.7-8.2-4.6-9.6c-11.2-3.9-23-5.9-35.1-5.9C47.5,11,0,58.5,0,116.9
	c0,58.4,47.5,105.9,105.9,105.9c55.4,0,101-42.8,105.5-97l8.9,11.8c1.5,1.9,3.7,3,6,3c1.6,0,3.2-0.5,4.5-1.5
	C234.2,136.6,234.8,131.9,232.3,128.6z"/>
</svg>
