<?xml version="1.0" encoding="utf-8"?>
<!-- Generator: Adobe Illustrator 19.2.1, SVG Export Plug-In . SVG Version: 6.00 Build 0)  -->
<svg version="1.1" id="Слой_1" xmlns="http://www.w3.org/2000/svg" xmlns:xlink="http://www.w3.org/1999/xlink" x="0px" y="0px"
	 viewBox="0 0 40 64" style="enable-background:new 0 0 40 64;" xml:space="preserve">
<style type="text/css">
	.st0{fill:#D01B2E;enable-background:new    ;}
	.st1{fill:#FFFFFF;}
</style>
<path class="st0" d="M0,20.1C0,9,9,0,20,0s20,9,20,20.1C40,31,20,64,20,64S0,31,0,20.1z"/>
<path class="st1" d="M17,30.8c0,0.7,0,1.2,0.1,1.6c0.1,0.4,0.2,0.7,0.3,1c0.2,0.2,0.4,0.4,0.6,0.5c0.3,0.1,0.7,0.3,1.2,0.4v0.8h-7.5
	v-0.8c0.7-0.2,1.2-0.4,1.4-0.6c0.2-0.2,0.4-0.5,0.5-1c0.1-0.4,0.1-1,0.1-1.9V16c0-0.8,0-1.4-0.1-1.7c-0.1-0.4-0.2-0.6-0.3-0.8
	c-0.1-0.2-0.3-0.4-0.5-0.5c-0.2-0.1-0.6-0.3-1.1-0.4v-0.8h8.5c2.7,0,4.7,0.5,6,1.5c1.3,1,2,2.6,2,4.7c0,1.2-0.2,2.3-0.6,3.2
	c-0.4,0.9-1,1.7-1.8,2.3c-0.8,0.6-1.6,1-2.7,1.3c-1,0.3-2.1,0.4-3.2,0.4c-1.3,0-2.3,0-3-0.1V30.8z M17,23.7h2c1.3,0,2.4-0.2,3.2-0.5
	c0.8-0.3,1.5-0.9,1.9-1.7c0.4-0.8,0.7-1.8,0.7-3.1c0-1-0.1-1.8-0.4-2.5c-0.3-0.7-0.6-1.2-1.1-1.6c-0.5-0.4-1-0.7-1.7-0.8
	c-0.6-0.2-1.3-0.2-2.1-0.2c-1.1,0-2,0-2.6,0.1V23.7z"/>
</svg>
