<?xml version="1.0" encoding="utf-8"?>
<!-- Generator: Adobe Illustrator 19.2.1, SVG Export Plug-In . SVG Version: 6.00 Build 0)  -->
<svg version="1.1" id="Capa_1" xmlns="http://www.w3.org/2000/svg" xmlns:xlink="http://www.w3.org/1999/xlink" x="0px" y="0px"
	 viewBox="0 0 56 56" style="enable-background:new 0 0 56 56;" xml:space="preserve">
<style type="text/css">
	.st0{fill:#BB1F2F;}
	.st1{fill:#FFFFFF;}
</style>
<circle class="st0" cx="28" cy="28" r="28"/>
<path class="st1" d="M19.9,27.3c-0.5,0.5-0.5,1.3,0,1.8c0.5,0.5,1.3,0.5,1.8,0c3.5-3.5,9.1-3.5,12.6,0c0.3,0.3,0.6,0.4,0.9,0.4
	c0.3,0,0.7-0.1,0.9-0.4c0.5-0.5,0.5-1.3,0-1.8C31.6,22.8,24.4,22.8,19.9,27.3z M23.4,30.7c-0.5,0.5-0.5,1.3,0,1.8
	c0.5,0.5,1.3,0.5,1.8,0c1.5-1.5,4.1-1.5,5.6,0c0.3,0.3,0.6,0.4,0.9,0.4s0.7-0.1,0.9-0.4c0.5-0.5,0.5-1.3,0-1.8
	C30.1,28.2,25.9,28.2,23.4,30.7z M28,33.6c0.9,0,1.7,0.8,1.7,1.7c0,0.9-0.8,1.7-1.7,1.7s-1.7-0.8-1.7-1.7
	C26.3,34.4,27.1,33.6,28,33.6z M39.6,23.7c-6.4-6.4-16.8-6.4-23.2,0c-0.5,0.5-0.5,1.3,0,1.8c0.5,0.5,1.3,0.5,1.8,0
	c5.4-5.4,14.2-5.4,19.6,0c0.3,0.3,0.6,0.4,0.9,0.4s0.7-0.1,0.9-0.4C40.1,25.1,40.1,24.2,39.6,23.7z"/>
</svg>
