<?xml version="1.0" encoding="utf-8"?>
<!-- Generator: Adobe Illustrator 19.2.1, SVG Export Plug-In . SVG Version: 6.00 Build 0)  -->
<svg version="1.1" id="Layer_1" xmlns="http://www.w3.org/2000/svg" xmlns:xlink="http://www.w3.org/1999/xlink" x="0px" y="0px"
	 viewBox="0 0 56 56" style="enable-background:new 0 0 56 56;" xml:space="preserve">
<style type="text/css">
	.st0{fill:#FFD52E;}
</style>
<path class="st0" d="M28,3.3L28,3.3l7.1,14.3c0.6,1.2,1.7,2,3.1,2.2L54,22.1c0,0,0,0,0,0.1L42.6,33.3c-1,0.9-1.4,2.3-1.2,3.6
	l2.7,15.8c0,0,0,0-0.1,0c0,0,0,0,0,0l-14.1-7.4c-0.6-0.3-1.2-0.5-1.9-0.5c-0.7,0-1.3,0.2-1.9,0.5L12,52.7c0,0,0,0-0.1-0.1l2.7-15.7
	c0.2-1.3-0.2-2.7-1.2-3.6L2,22.2c0,0,0-0.1,0-0.1l15.8-2.3c1.3-0.2,2.5-1,3.1-2.2L28,3.3C28,3.3,28,3.3,28,3.3 M28,1.3
	c-0.7,0-1.5,0.4-1.8,1.1l-7.1,14.3c-0.3,0.6-0.9,1-1.5,1.1L1.8,20.1c-1.7,0.2-2.4,2.3-1.1,3.5L12,34.8c0.5,0.5,0.7,1.2,0.6,1.8
	L9.9,52.3c-0.2,1.3,0.8,2.4,2,2.4c0.3,0,0.6-0.1,1-0.2L27,47.1c0.3-0.2,0.6-0.2,1-0.2s0.7,0.1,1,0.2l14.1,7.4c0.3,0.2,0.6,0.2,1,0.2
	c1.2,0,2.3-1.1,2-2.4l-2.7-15.7c-0.1-0.7,0.1-1.3,0.6-1.8l11.4-11.1c1.2-1.2,0.5-3.3-1.1-3.5l-15.8-2.3c-0.7-0.1-1.2-0.5-1.5-1.1
	L29.8,2.4C29.5,1.7,28.7,1.3,28,1.3L28,1.3z"/>
<path class="st0" d="M28.2,1.3c-0.8-0.1-1.6,0.3-2,1.1l-7.1,14.3c-0.3,0.6-0.9,1-1.5,1.1L1.8,20.1c-1.7,0.2-2.4,2.3-1.1,3.5L12,34.8
	c0.5,0.5,0.7,1.2,0.6,1.8L9.9,52.3c-0.3,1.7,1.5,3,3,2.2L27,47.1c0.4-0.2,0.7-0.2,1.1-0.2V1.3z"/>
</svg>
