<?xml version="1.0" encoding="utf-8"?>
<!-- Generator: Adobe Illustrator 19.2.1, SVG Export Plug-In . SVG Version: 6.00 Build 0)  -->
<svg version="1.1" id="Layer_1" xmlns="http://www.w3.org/2000/svg" xmlns:xlink="http://www.w3.org/1999/xlink" x="0px" y="0px"
	 viewBox="0 0 56 56" style="enable-background:new 0 0 56 56;" xml:space="preserve">
<style type="text/css">
	.st0{fill:#FFD52E;}
</style>
<path class="st0" d="M27,47.1l-14.1,7.4c-1.5,0.8-3.3-0.5-3-2.2l2.7-15.7c0.1-0.7-0.1-1.3-0.6-1.8L0.6,23.6
	c-1.2-1.2-0.5-3.3,1.1-3.5l15.8-2.3c0.7-0.1,1.2-0.5,1.5-1.1l7.1-14.3c0.8-1.5,2.9-1.5,3.7,0l7.1,14.3c0.3,0.6,0.9,1,1.5,1.1
	l15.8,2.3c1.7,0.2,2.4,2.3,1.1,3.5L44,34.8c-0.5,0.5-0.7,1.2-0.6,1.8l2.7,15.7c0.3,1.7-1.5,3-3,2.2L29,47.1
	C28.4,46.8,27.6,46.8,27,47.1z"/>
</svg>
