<?xml version="1.0" encoding="utf-8"?>
<!-- Generator: Adobe Illustrator 19.2.1, SVG Export Plug-In . SVG Version: 6.00 Build 0)  -->
<svg version="1.1" id="Capa_1" xmlns="http://www.w3.org/2000/svg" xmlns:xlink="http://www.w3.org/1999/xlink" x="0px" y="0px"
	 viewBox="0 0 496 496" style="enable-background:new 0 0 496 496;" xml:space="preserve">
<style type="text/css">
	.st0{fill:#FFFFFF;}
</style>
<g>
	<g>
		<path class="st0" d="M144.4,144.6V8c0-4.4-3.6-8-8-8h-64c-4.4,0-8,3.6-8,8v136.6c-27.1,3.9-48,27.3-48,55.4v256
			c0,22.1,17.9,40,40,40h96c22.1,0,40-17.9,40-40V200C192.4,171.8,171.5,148.5,144.4,144.6z M176.4,456c0,13.2-10.8,24-24,24h-96
			c-13.2,0-24-10.8-24-24v-8h144V456z M176.4,432h-144V232h144V432z M176.4,216h-144v-16c0-22.1,17.9-40,40-40c4.4,0,8-3.6,8-8V16
			h48v136c0,4.4,3.6,8,8,8c22.1,0,40,17.9,40,40V216z"/>
	</g>
</g>
<g>
	<g>
		<path class="st0" d="M328.7,245.8l-1.9-2.6c-1.5-2-3.9-3.2-6.4-3.2h-64c-2.5,0-4.9,1.2-6.4,3.2l-1.9,2.6
			c-15,19.9-12.9,48.3,4.7,65.9c9.5,9.5,22.2,14.8,35.6,14.8s26.1-5.2,35.6-14.8C341.6,294,343.6,265.7,328.7,245.8z M312.7,300.4
			c-13.4,13.4-35.2,13.4-48.7,0c-11.8-11.8-13.4-30.8-3.6-44.4h56C326,269.6,324.5,288.5,312.7,300.4z"/>
	</g>
</g>
<g>
	<g>
		<path class="st0" d="M438.3,245.8l-1.9-2.6c-1.5-2-3.9-3.2-6.4-3.2h-53.6v16h49.6c9.7,13.6,8.2,32.5-3.6,44.4
			c-11.4,11.4-28.9,13.4-42.6,4.8l-8.5,13.6c8.3,5.2,17.6,7.8,26.8,7.8c13,0,25.8-5.1,35.6-14.8C451.2,294,453.2,265.7,438.3,245.8z
			"/>
	</g>
</g>
<g>
	<g>
		<path class="st0" d="M435.8,351.2c31.5-15.8,49-50.9,42.5-85.6l-14.1-75.1c-0.7-3.8-4-6.5-7.9-6.5h-112h-112
			c-3.8,0-7.2,2.7-7.9,6.5l-14.1,75.1c-6.5,34.6,11,69.8,42.5,85.6c8.7,4.3,18,6.9,27.5,7.9V480h-40v16h96v-16h-40V359.1
			c9.5-1,18.8-3.5,27.5-7.9c7.8-3.9,14.6-8.9,20.5-14.9c6,6,12.9,11,20.5,14.9c8.7,4.3,18,6.9,27.5,7.9V480h-40v16h96v-16h-40V359.1
			C417.8,358.1,427.2,355.5,435.8,351.2z M352,280c0,3.1-0.4,6.1-0.8,9.1c0,0.1-0.2,0.2-0.2,0.3c-0.4,3-1.2,5.8-2,8.7
			c-0.2,0.5-0.3,1.1-0.5,1.6c-1,2.9-2.1,5.8-3.5,8.6c-0.1,0.1-0.1,0.2-0.2,0.3c-1.3,2.6-2.8,5-4.4,7.4c-0.4,0.6-0.8,1.2-1.3,1.8
			c-5.8,7.9-13.4,14.5-22.5,19.1c-17.7,8.9-38.9,8.9-56.6,0c-25.2-12.6-39.1-40.7-33.9-68.3L239,200h98.7l12.2,60.4l2.4,8.2
			c0,0,0,0,0,0c0,3.1-0.1,6.2,0.1,9.2C352.4,278.6,352,279.3,352,280z M372,336.9c-6.6-3.3-12.5-7.7-17.5-13c0.4-0.6,0.7-1.2,1-1.7
			c0.5-0.9,1-1.7,1.5-2.6c0.7-1.2,1.4-2.4,2-3.6c0.4-0.7,0.7-1.4,1-2.1c2.2-4.6,3.9-9.4,5.1-14.3c0.2-0.8,0.4-1.6,0.6-2.4
			c0.3-1.3,0.5-2.6,0.7-3.9c0.2-1,0.3-2.1,0.5-3.1c0.2-1.2,0.3-2.4,0.4-3.6c0.1-1.2,0.2-2.4,0.2-3.7c0-1.1,0.1-2.2,0.1-3.2
			c0-1.4-0.1-2.9-0.2-4.4c-0.1-0.9-0.1-1.8-0.2-2.6c-0.2-2.4-0.5-4.7-1-7.1L354,200h95.7l12.9,68.6c5.2,27.6-8.8,55.7-33.9,68.3
			C410.9,345.8,389.8,345.8,372,336.9z"/>
	</g>
</g>
<g>
	<g>
		<path class="st0" d="M104.4,272c-22.1,0-40,17.9-40,40s17.9,40,40,40s40-17.9,40-40C144.4,289.9,126.4,272,104.4,272z M104.4,336
			c-13.2,0-24-10.8-24-24s10.8-24,24-24s24,10.8,24,24S117.6,336,104.4,336z"/>
	</g>
</g>
<g>
	<g>
		<rect x="72.4" y="368" class="st0" width="64" height="16"/>
	</g>
</g>
<g>
	<g>
		<path class="st0" d="M272.4,96c-17.6,0-32-14.4-32-32c0-4.4-3.6-8-8-8s-8,3.6-8,8c0,17.6-14.4,32-32,32c-4.4,0-8,3.6-8,8
			s3.6,8,8,8c17.6,0,32,14.4,32,32c0,4.4,3.6,8,8,8s8-3.6,8-8c0-17.6,14.4-32,32-32c4.4,0,8-3.6,8-8S276.8,96,272.4,96z
			 M232.4,117.5c-3.6-5.3-8.2-9.9-13.5-13.5c5.3-3.6,9.9-8.2,13.5-13.5c3.6,5.3,8.2,9.9,13.5,13.5
			C240.5,107.6,235.9,112.2,232.4,117.5z"/>
	</g>
</g>
</svg>
