<svg xmlns="http://www.w3.org/2000/svg" xmlns:xlink="http://www.w3.org/1999/xlink"><defs>
    
  </defs><symbol id="001-birthday-boy" viewbox="0 0 56 56">

<circle class="st0" cx="28" cy="28" r="28"/>
<path class="st1" d="M30.4,37.5c-0.6,0.6-1.5,1-2.4,1s-1.8-0.4-2.4-1l-1.3,1.3c1,1,2.3,1.5,3.7,1.5c1.4,0,2.7-0.5,3.7-1.5L30.4,37.5
	z M25.6,33.4c0.5,0,0.9,0.4,0.9,0.9s-0.4,0.9-0.9,0.9s-0.9-0.4-0.9-0.9S25,33.4,25.6,33.4z M30.4,33.4c0.5,0,0.9,0.4,0.9,0.9
	s-0.4,0.9-0.9,0.9c-0.5,0-0.9-0.4-0.9-0.9S29.9,33.4,30.4,33.4z M37.7,30.4c-0.8-2.3-2.3-4.2-4.3-5.5l-4.2-8.3
	c0.7-0.4,1.2-1.2,1.2-2.1c0-1.4-1.1-2.5-2.5-2.5c-1.4,0-2.5,1.1-2.5,2.5c0,0.9,0.5,1.7,1.2,2.1l-4.2,8.3c-2,1.3-3.5,3.2-4.3,5.5
	c-1.3,0.5-2.3,1.8-2.3,3.3c0,1.5,0.9,2.8,2.3,3.3c0.6,1.9,1.9,3.6,3.5,4.9c1.8,1.4,4,2.1,6.3,2.1s4.4-0.7,6.3-2.1
	c1.6-1.2,2.8-3,3.5-4.9c1.3-0.5,2.3-1.8,2.3-3.3C40,32.2,39.1,30.9,37.7,30.4z M28,18.2l3.3,6.5h-6.5L28,18.2z M23.4,26.6h9.3
	c1.3,0.9,2.4,2.1,3,3.6c-3.6-0.3-5.8-2-5.9-2.1l-0.6-0.5l-0.6,0.5c-2.8,2.2-6.5,2.3-8.4,2.2C20.9,28.8,22,27.5,23.4,26.6z
	 M36.8,35.3l-0.6,0.1l-0.2,0.6c-1,3.6-4.3,6.2-8.1,6.2s-7.1-2.5-8.1-6.2l-0.2-0.6l-0.6-0.1c-0.8-0.1-1.3-0.8-1.3-1.6
	c0-0.7,0.5-1.4,1.2-1.6c0.4,0.1,1.1,0.1,2.2,0.1c2.1,0,5.3-0.4,8-2.2c1.1,0.7,3.7,2.1,7.3,2.1c0.1,0,0.2,0,0.3,0
	c0.7,0.2,1.2,0.8,1.2,1.6C38.1,34.5,37.6,35.1,36.8,35.3z"/>
</symbol><symbol id="001-food" viewbox="0 0 56.8 56.8">

<g>
	<path class="st0" d="M36.3,25.3c0.1,0,0.2,0.1,0.3,0.1c0.4,0,0.8-0.3,0.9-0.7c0.3-0.9,1.3-1.4,2.2-1.1c2,0.7,4.1-0.4,4.8-2.4
		c0.2-0.5-0.1-1.1-0.6-1.3c-0.5-0.2-1.1,0.1-1.3,0.6c-0.3,0.9-1.3,1.4-2.2,1.1c-2-0.7-4.1,0.4-4.8,2.4
		C35.5,24.6,35.7,25.1,36.3,25.3z"/>
	<path class="st0" d="M38.6,18.3c0.1,0,0.2,0.1,0.3,0.1c0.4,0,0.8-0.3,0.9-0.7c0.2-0.4,0.5-0.8,0.9-1s0.9-0.2,1.3-0.1
		c2,0.7,4.1-0.4,4.8-2.4c0.2-0.5-0.1-1.1-0.6-1.3c-0.5-0.2-1.1,0.1-1.3,0.6c-0.3,0.9-1.3,1.4-2.2,1.1c-1-0.3-2-0.3-2.9,0.2
		c-0.9,0.4-1.6,1.2-1.9,2.2C37.8,17.6,38.1,18.2,38.6,18.3z"/>
	<path class="st0" d="M41,11.4c0.1,0,0.2,0.1,0.3,0.1c0.4,0,0.8-0.3,0.9-0.7c0.2-0.7,1-1,1.6-0.8c0.8,0.3,1.7,0.2,2.5-0.2
		c0.8-0.4,1.4-1.1,1.7-1.9c0.2-0.5-0.1-1.1-0.6-1.3c-0.5-0.2-1.1,0.1-1.3,0.6c-0.1,0.3-0.3,0.6-0.7,0.7c-0.3,0.2-0.7,0.2-1,0.1
		c-1.7-0.6-3.6,0.3-4.2,2.1C40.2,10.6,40.5,11.2,41,11.4z"/>
	<path class="st0" d="M48.2,25.2c-0.2-0.1-0.4-0.2-0.6-0.2c2-6.5,3.1-12.8,3.2-18.8c0-1.9-0.9-4.4-2.7-5.6c-0.9-0.6-2.4-1-4.3,0
		c-3,1.5-5.1,6.1-6.8,9.7c-0.1,0.2-0.2,0.4-0.3,0.6c-0.4-1.7-1.5-3.2-3.2-4c-0.4-1.9-1.9-3.3-3.7-3.7c0-0.1,0-0.2-0.1-0.3
		c-0.4-1.3-1.5-2.3-2.9-2.4c-0.7-0.1-1.5,0.1-2.1,0.4c-0.5-0.3-1.1-0.5-1.8-0.5c-1.7,0-3.2,1.2-3.6,2.8c-1.9,0.5-3.3,2.3-3.3,4.3
		c-2.2,0.6-3.7,2.5-3.7,4.9c0,0.6,0.1,1.2,0.3,1.8c-0.6,0.7-0.9,1.6-0.9,2.5c0,0.5,0.1,1.1,0.3,1.6c-1-1.1-2.4-2-4-1.9
		c-0.6,0-1,0.5-1,1c0,0.5,0.5,1,1,1c0,0,0.1,0,0.1,0c0.9,0,1.8,0.6,2.4,1.3c-1.6,0.5-3.5,1.2-4.4,2.9c-0.5,1-0.6,2.3-0.2,3.7
		c-0.2,0.3-0.3,0.6-0.3,1l1.7,24.2c0.2,3,2.7,5.4,5.7,5.4h28.1c3,0,5.5-2.4,5.7-5.4l1.7-25c0,0,0,0,0,0
		C48.8,25.9,48.6,25.5,48.2,25.2z M37.6,13.8c0.4-0.7,0.8-1.7,1.3-2.6c1.5-3.2,3.6-7.6,5.9-8.8c0.9-0.4,1.6-0.5,2.3,0
		c1.2,0.7,1.8,2.6,1.8,3.9c-0.2,5.9-1.2,12.1-3.2,18.5c-0.1,0.2-0.2,0.6-0.4,1.2l-1.7,0.8c0,0-0.1,0-0.1,0.1c-0.5,0.3-1,0.4-1.6,0.4
		c-0.6,0-1.1-0.2-1.6-0.4l-0.7-0.4c-0.8-0.5-1.7-0.7-2.7-0.7c0,0,0,0,0,0c-0.9,0-1.9,0.2-2.7,0.7l-0.7,0.4c-0.4,0.2-0.8,0.4-1.3,0.4
		c0-0.1,0.1-0.2,0.1-0.3c0.3-0.9,0.6-1.8,0.9-2.8c0.1-0.3,0.2-0.7,0.4-1c0.3-0.7,0.5-1.4,0.8-2.1c0.1-0.3,0.2-0.6,0.4-1
		C35.6,17.8,36.5,15.7,37.6,13.8z M24.8,16.1c0.1-0.1,0.2-0.3,0.3-0.4c0,0,0,0,0,0c0.1-0.1,0.1-0.2,0.2-0.3c0.2-0.5,0.3-1,0.2-1.5
		l4.2-0.9c0,0.1,0.1,0.3,0.1,0.4c0.2,0.5,0.5,0.8,1,1.1c0.2,0.1,0.3,0.2,0.5,0.3c0.1,0.1,0.3,0.1,0.4,0.2c0.1,0,0.1,0.1,0.2,0.1
		c0.1,0.1,0.2,0.1,0.3,0.2c0.1,0.1,0.2,0.1,0.3,0.2c0.1,0.1,0.2,0.2,0.3,0.2c0.1,0.1,0.2,0.2,0.3,0.2c0.1,0.1,0.2,0.2,0.3,0.3
		c0.2,0.2,0.3,0.4,0.4,0.6c-0.4,0.9-0.8,1.9-1.2,2.9c-0.1,0.1-0.1,0.3-0.2,0.4c-1.1,0.3-2.2,0.8-3.5,1.7c-1.6,1.2-2.9,1.5-4.9,1.2
		l-0.6-2.8C23.1,18.4,24,17.2,24.8,16.1z M29.8,10.1C29.8,10.1,29.8,10.1,29.8,10.1c0.3,0,0.4,0.1,0.5,0.3c0,0.1,0,0.3-0.1,0.3
		c0,0.1-0.1,0.1-0.3,0.2l-5.5,1.2c-0.2,0-0.4-0.1-0.5-0.3c0-0.2,0.1-0.4,0.3-0.5l2.9-0.6L29.8,10.1z M26.6,25.5c-0.1,0-0.2,0-0.2,0
		c-0.5,0.1-1.1,0.2-1.6,0.4l-0.2-0.9c0.3,0,0.6,0,0.8,0c1.7,0,3.1-0.5,4.8-1.7c0.5-0.4,1-0.6,1.4-0.9c-0.1,0.3-0.2,0.5-0.3,0.8
		c-0.1,0.2-0.1,0.4-0.2,0.6c-0.3,0.9-0.6,1.8-0.8,2.7l-0.7-0.4c-0.8-0.5-1.7-0.7-2.7-0.7c0,0,0,0,0,0C26.8,25.5,26.7,25.5,26.6,25.5
		z M14.6,15.2l0.7-0.5l-0.4-0.7c-0.3-0.5-0.4-1-0.4-1.5c0-1.6,1.3-2.9,2.9-3l1.2-0.1l-0.3-1.2c0-0.2-0.1-0.4-0.1-0.6
		c0-1.3,1-2.4,2.3-2.5l0.9-0.1v-1c0-0.9,0.8-1.6,1.7-1.6c0.5,0,0.9,0.2,1.1,0.4l0.7,0.6l0.7-0.7c0.3-0.3,0.7-0.4,1.2-0.4
		c0.5,0.1,1,0.5,1.2,1c0.1,0.2,0.1,0.4,0,0.5l-0.1,1.1h1.1c1.4,0,2.6,1.1,2.7,2.6l0,0.7l0.6,0.2c1.6,0.5,2.6,2,2.6,3.7
		c0,0.7-0.2,1.4-0.7,2c-0.7-0.6-1.4-1-2-1.3c-0.2-0.1-0.3-0.2-0.5-0.2c0,0-0.1-0.1-0.1-0.2c0-0.1,0-0.3,0.1-0.4
		c0.4-0.5,0.6-1.2,0.5-1.8l-0.1-0.6c-0.1-0.6-0.5-1-0.9-1.3c-0.5-0.3-1-0.4-1.6-0.3l-0.3,0.1c0,0,0,0,0,0l-2.9,0.6l-2.9,0.6
		c-0.6,0.1-1,0.5-1.3,0.9c-0.3,0.5-0.4,1.1-0.3,1.6l0.1,0.3c0,0,0,0,0,0s0,0,0,0l0.1,0.3c0.1,0.7,0.6,1.2,1.2,1.5
		c0.2,0.1,0.3,0.2,0.3,0.3c0,0.1,0,0.1,0,0.2c0,0,0,0,0,0c-0.1,0.1-0.2,0.3-0.3,0.4c-0.1,0.1-0.2,0.3-0.3,0.4c0,0.1-0.1,0.1-0.1,0.2
		c-0.1,0.1-0.2,0.2-0.2,0.3c0,0.1-0.1,0.1-0.1,0.2c-0.1,0.1-0.1,0.2-0.2,0.4c0,0.1-0.1,0.1-0.1,0.2c-0.1,0.1-0.1,0.3-0.2,0.4
		c0,0.1-0.1,0.1-0.1,0.2c-0.1,0.2-0.2,0.4-0.2,0.7c0,0,0,0.1,0,0.1c0,0.2-0.1,0.4-0.1,0.6c0,0.1,0,0.2,0,0.3c0,0.1,0,0.2,0,0.4
		c0,0,0,0,0,0c0,0,0,0,0-0.1c-0.2-0.2-0.3-0.4-0.5-0.6c-0.1-0.1-0.1-0.1-0.2-0.2c-0.1-0.2-0.3-0.3-0.4-0.4c0,0-0.1-0.1-0.1-0.1
		c-0.2-0.2-0.4-0.3-0.6-0.5c-0.1,0-0.1-0.1-0.2-0.1c-0.1-0.1-0.3-0.2-0.4-0.3c-0.1,0-0.1-0.1-0.2-0.1c-0.1-0.1-0.3-0.1-0.5-0.2
		c0,0-0.1,0-0.1-0.1c-0.2-0.1-0.3-0.1-0.5-0.1c0,0,0,0-0.1,0c0,0-0.1,0-0.1,0c-0.1,0-0.2,0-0.3,0c-0.1,0-0.2,0-0.2,0c0,0,0,0-0.1,0
		c-0.2,0-0.3,0-0.5,0c-0.1,0-0.1,0-0.2,0c-0.2,0-0.4,0.1-0.6,0.1c0,0-0.1,0-0.1,0c-0.5,0.2-1,0.4-1.4,0.7c-0.1-0.2-0.1-0.5-0.1-0.7
		C13.9,16.1,14.1,15.6,14.6,15.2z M8.2,23.5c0.4-0.8,1.4-1.4,3.2-1.9c0.8-0.2,1.6-0.7,2.2-1.3c0.3-0.3,0.6-0.5,0.8-0.7
		c0.8-0.7,1.5-1,2.1-1.1c0,0,0,0,0,0c0.2,0,0.4,0,0.6,0c0,0,0.1,0,0.1,0c0.1,0,0.2,0,0.3,0.1c0.1,0,0.1,0.1,0.2,0.1
		c0.1,0,0.2,0.1,0.3,0.1c0.1,0,0.1,0.1,0.2,0.1c0.1,0.1,0.2,0.1,0.2,0.2c0.1,0.1,0.2,0.1,0.2,0.2s0.2,0.1,0.2,0.2
		c0.1,0.1,0.2,0.2,0.3,0.3c0.1,0.1,0.1,0.1,0.2,0.2c0.1,0.1,0.2,0.2,0.3,0.4c0.1,0.1,0.1,0.2,0.2,0.2c0.1,0.2,0.2,0.3,0.3,0.5
		c0,0.1,0.1,0.1,0.1,0.2c0.2,0.3,0.3,0.5,0.5,0.8c0.7,1.3,1,3.2,0.7,4.9c-0.1,0-0.1,0-0.2,0c-0.4-0.1-0.7-0.2-1.1-0.4l-0.7-0.4
		c-0.8-0.5-1.7-0.7-2.7-0.7c0,0,0,0,0,0c-0.9,0-1.9,0.2-2.7,0.7l-0.3,0.2c-0.6,0.4-1.3,0.5-2,0.6c-0.7,0-1.4-0.2-2-0.6l-1.3-0.8
		c0,0,0,0,0,0c-0.2-0.1-0.4-0.2-0.6-0.2C7.8,24.6,7.9,24,8.2,23.5z M45.1,51.3c-0.1,2-1.7,3.5-3.7,3.5H13.3c-2,0-3.6-1.5-3.7-3.5
		L7.9,27.7l0.9,0.5c0.9,0.6,2,0.8,3.1,0.8c1.1,0,2.1-0.3,3.1-0.8l0.3-0.2c0.5-0.3,1-0.4,1.6-0.4c0.6,0,1.1,0.2,1.6,0.4l0.7,0.4
		c0.9,0.5,1.9,0.8,2.9,0.7c0.1,0,0.2,0,0.3,0c0,0,0,0,0,0c0.7-0.1,1.4-0.3,2-0.6c0.1,0,0.1,0,0.2-0.1l0.7-0.4c0.5-0.3,1-0.4,1.6-0.4
		c0.6,0,1.1,0.2,1.6,0.4l0.7,0.4c0.8,0.5,1.6,0.7,2.4,0.7c0,0,0,0,0.1,0c0.3,0,0.6,0,0.9,0c0.2,0,0.3-0.1,0.5-0.1
		c0.1,0,0.2,0,0.2-0.1c0.4-0.1,0.9-0.3,1.3-0.5l0,0l0.7-0.4c0.5-0.3,1-0.4,1.6-0.4c0.6,0,1.1,0.2,1.6,0.4l0.7,0.4
		c0.8,0.5,1.8,0.7,2.7,0.7c0,0,0,0,0,0c0.9,0,1.8-0.2,2.6-0.7l2-0.9c0,0,0.1-0.1,0.1-0.1l0.2-0.1L45.1,51.3z"/>
	<path class="st0" d="M11.9,43h7c0.6,0,1-0.4,1-1s-0.4-1-1-1h-7c-0.6,0-1,0.4-1,1S11.4,43,11.9,43z"/>
	<path class="st0" d="M11.9,47h9c0.6,0,1-0.4,1-1s-0.4-1-1-1h-9c-0.6,0-1,0.4-1,1S11.4,47,11.9,47z"/>
	<path class="st0" d="M22.9,49h-11c-0.6,0-1,0.4-1,1s0.4,1,1,1h11c0.6,0,1-0.4,1-1S23.5,49,22.9,49z"/>
	<path class="st0" d="M28.9,49h-2c-0.6,0-1,0.4-1,1s0.4,1,1,1h2c0.6,0,1-0.4,1-1S29.5,49,28.9,49z"/>
</g>
</symbol><symbol id="001-time" viewbox="0 0 432.1 432.1">

<g>
	<g>
		<path class="st0" d="M216.1,0C96.8,0,0,96.8,0,216.1s96.8,216.1,216.1,216.1s216.1-96.8,216.1-216.1S335.4,0,216.1,0z
			 M295.9,244.7h-87c-5.6,0-10.2-3.1-13.3-7.7l-56.3-100.9c-4.1-7.2-1.5-16.9,6.1-21s16.9-1.5,21,6.1l51.7,92.7h77.8
			c8.7,0,15.4,6.7,15.4,15.4S304.1,244.7,295.9,244.7z"/>
	</g>
</g>
</symbol><symbol id="002-birch" viewbox="0 0 56 56">

<circle class="st0" cx="28" cy="28" r="28"/>
<path class="st1" d="M22.1,17.8c-0.1,0.3-0.1,0.5,0,0.8l0.3,0.6l-4,1.6c-0.3,0.1-0.6,0.5-0.6,0.8c0,0.4,0.2,0.7,0.5,0.9l0.8,0.4
	l-2.1,1.5c-0.4,0.3-0.5,0.8-0.3,1.2l0.6,1.2l-1.8,2.7c-0.3,0.4-0.2,0.9,0.2,1.2l0.4,0.3c-1,1.4-2.2,3.1-2.3,3.3
	c-0.2,0.3-0.3,0.7-0.1,1c0.2,0.3,0.5,0.5,0.9,0.5c0.3,0,2.3,0,4,0l0,0.5c0,0.5,0.4,0.9,0.9,0.9l3.2,0.1l0.6,1.2
	c0.2,0.4,0.7,0.6,1.1,0.4l2.5-0.9l-0.1,0.9c-0.1,0.4,0.1,0.7,0.4,0.9c0.3,0.2,0.7,0.2,1,0l3.6-2.3l0.3,0.6c0.1,0.2,0.3,0.4,0.6,0.5
	c0.3,0.1,0.5,0,0.8-0.1c0.1-0.1,2.3-1.7,4.1-4.4c2.2-3.5,2.5-7.1,0.9-10.7l0.9-0.5c1.7-0.9,2.4-3,1.5-4.6c-0.2-0.5-0.8-0.6-1.3-0.4
	c-0.5,0.2-0.6,0.8-0.4,1.3c0.4,0.8,0.1,1.7-0.7,2.1l-0.9,0.5c-1.9-3.3-5.1-5.2-9.2-5.4c-3.2-0.2-5.8,0.7-5.9,0.8
	C22.4,17.3,22.2,17.5,22.1,17.8z M28.4,28.8c-0.5,1.9-1,4-1,4.1c-0.1,0.5,0.2,1,0.7,1.1c0.5,0.1,1-0.2,1.1-0.7
	c0-0.2,0.8-3.4,1.4-5.6l2.9-1.5c-0.6,2.5-1.5,6-1.5,6.1c-0.1,0.5,0.2,1,0.7,1.1c0.5,0.1,1-0.2,1.1-0.7c0.1-0.2,1.4-5.5,1.9-7.6
	l1.3-0.7c1.3,2.9,1,5.9-0.8,8.8c-0.9,1.4-2,2.5-2.7,3.2l-0.3-0.5c-0.1-0.2-0.3-0.4-0.6-0.5s-0.5,0-0.7,0.1l-2.7,1.7l0.1-0.4
	c0.1-0.3-0.1-0.7-0.3-0.9c-0.3-0.2-0.6-0.3-0.9-0.2l-3.2,1.1l-0.5-1c-0.2-0.3-0.5-0.5-0.8-0.5l-2.9-0.1l0-0.5c0-0.5-0.4-0.9-0.9-0.9
	c-0.4,0-0.8,0-1.2,0l5.3-2.7c-0.5,1.9-0.5,2-0.5,2c-0.1,0.5,0.2,1,0.7,1.1c0.5,0.1,1-0.2,1.1-0.7c0-0.1,0.5-2.1,0.9-3.5L28.4,28.8
	L28.4,28.8z M28.5,18.3c3.4,0.2,6,1.7,7.6,4.4l-1.3,0.7c-2-0.8-7-2.8-7.3-2.9c-0.5-0.2-1,0-1.2,0.5c-0.2,0.5,0,1,0.5,1.2
	c0.1,0,3.4,1.4,5.8,2.3l-2.9,1.5c-2.1-0.8-5.2-2.1-5.4-2.1c-0.5-0.2-1,0-1.2,0.5c-0.2,0.5,0,1,0.5,1.2c0.1,0,2.1,0.8,3.9,1.6
	l-2.4,1.2c-1.3-0.5-3.2-1.3-3.3-1.3c-0.5-0.2-1,0-1.2,0.5c-0.2,0.5,0,1,0.5,1.2c0,0,0.1,0,1.9,0.8l-5.3,2.7c0.2-0.3,0.4-0.6,0.7-1
	c0.3-0.4,0.2-1-0.2-1.3l-0.4-0.3l1.6-2.4c0.2-0.3,0.2-0.6,0.1-0.9l-0.5-1l2.8-1.9c0.3-0.2,0.4-0.5,0.4-0.8c0-0.3-0.2-0.6-0.5-0.8
	l-0.4-0.2l3-1.2c0.2-0.1,0.4-0.3,0.5-0.5c0.1-0.2,0.1-0.5,0-0.7l-0.3-0.5C25.3,18.5,26.8,18.2,28.5,18.3z"/>
</symbol><symbol id="002-food-1" viewbox="0 0 60 60">

<g>
	<path class="st0" d="M18.4,20.8c0.2,0.2,0.5,0.3,0.7,0.3s0.5-0.1,0.7-0.3c0.4-0.4,0.4-1,0-1.4c-1-1-1-2.7,0-3.7
		c0.9-0.9,1.4-2,1.4-3.3s-0.5-2.4-1.4-3.3c-0.4-0.4-1-0.4-1.4,0s-0.4,1,0,1.4c0.5,0.5,0.8,1.1,0.8,1.8s-0.3,1.4-0.8,1.8
		C16.6,16.1,16.6,19,18.4,20.8z"/>
	<path class="st0" d="M40.3,20.8c0.2,0.2,0.5,0.3,0.7,0.3s0.5-0.1,0.7-0.3c0.4-0.4,0.4-1,0-1.4c-1-1-1-2.7,0-3.7
		c0.9-0.9,1.3-2,1.3-3.3s-0.5-2.4-1.3-3.3c-0.4-0.4-1-0.4-1.4,0s-0.4,1,0,1.4c0.5,0.5,0.8,1.1,0.8,1.8s-0.3,1.4-0.8,1.8
		C38.6,16.1,38.6,19,40.3,20.8z"/>
	<path class="st0" d="M29.4,14.8c0.2,0.2,0.5,0.3,0.7,0.3s0.5-0.1,0.7-0.3c0.4-0.4,0.4-1,0-1.4c-1-1-1-2.7,0-3.7
		c0.9-0.9,1.4-2,1.4-3.3s-0.5-2.4-1.4-3.3c-0.4-0.4-1-0.4-1.4,0s-0.4,1,0,1.4c0.5,0.5,0.8,1.1,0.8,1.8s-0.3,1.3-0.8,1.8
		C27.6,10.1,27.6,13,29.4,14.8z"/>
	<path class="st0" d="M25.3,28.6c0.1,0,0.1,0,0.2,0c1.4-0.3,2.9-0.5,4.4-0.5c0,0,0,0,0,0l0,0c0.6,0,1-0.4,1-1c0-0.6-0.4-1-1-1
		c0,0,0,0,0,0c-1.6,0-3.3,0.2-4.9,0.5c-0.5,0.1-0.9,0.7-0.8,1.2C24.5,28.3,24.9,28.6,25.3,28.6z"/>
	<path class="st0" d="M9.8,45.1c0.1,0,0.1,0,0.2,0c0.5,0,0.9-0.3,1-0.8c1-5.7,4.5-10.8,9.2-13.6c0.5-0.3,0.6-0.9,0.4-1.4
		c-0.3-0.5-0.9-0.6-1.4-0.4c-5.2,3.1-9,8.7-10.1,14.9C8.9,44.5,9.3,45,9.8,45.1z"/>
	<path class="st0" d="M55.6,43.7C53.8,33.1,45.5,24.6,35,22.6c0-0.2,0-0.3,0-0.5c0-2.8-2.2-5-5-5s-5,2.2-5,5c0,0.2,0,0.3,0,0.5
		c-10.6,2-18.9,10.5-20.7,21.1C2.3,44.9,0,46.6,0,48.6c0,5.1,15.5,8.5,30,8.5s30-3.4,30-8.5C60,46.6,57.7,44.9,55.6,43.7z M27,22.3
		c0-0.1,0-0.1,0-0.2c0-1.7,1.3-3,3-3s3,1.3,3,3c0,0.1,0,0.1,0,0.2c0,0-0.1,0-0.1,0c-0.3,0-0.7-0.1-1-0.1c-0.1,0-0.3,0-0.4,0
		c-0.5,0-1,0-1.4,0s-1,0-1.4,0c-0.1,0-0.3,0-0.4,0c-0.3,0-0.7,0.1-1,0.1C27.1,22.3,27.1,22.3,27,22.3z M26.4,24.4
		c0.5-0.1,1.1-0.1,1.6-0.2c0.1,0,0.2,0,0.3,0c1.1-0.1,2.2-0.1,3.3,0c0.1,0,0.2,0,0.3,0c0.5,0,1.1,0.1,1.6,0.2
		c10.4,1.6,18.7,9.9,20.2,20.3c0,0.3,0.1,0.6,0.1,1c0,0.1,0,0.2,0,0.3c0,0.4,0.1,0.9,0.1,1.3C38.3,51,21.7,51,6,47.3
		c0-0.4,0-0.9,0.1-1.3c0-0.1,0-0.2,0-0.3c0-0.3,0.1-0.6,0.1-1C7.7,34.2,16,25.9,26.4,24.4z M30,55.1c-17.1,0-28-4.3-28-6.5
		c0-0.4,0.5-1.2,2.1-2.3c0,0.1,0,0.1,0,0.2C4,47,4,47.5,4,48.1v0.8l0.8,0.2c8.3,2,16.7,3,25.2,3s17-1,25.2-3l0.8-0.2v-0.8
		c0-0.6,0-1.1-0.1-1.7c0-0.1,0-0.1,0-0.2c1.6,1.1,2.1,1.9,2.1,2.3C58,50.8,47.1,55.1,30,55.1z"/>
</g>
</symbol><symbol id="002-placeholder-filled-point" viewbox="0 0 97.7 97.7">

<g>
	<path class="st0" d="M48.9,0c-19.8,0-36,16.1-36,36c0,5.2,1.1,10.1,3.1,14.7C25,70.3,42.3,91.1,47.3,97c0.4,0.4,0.9,0.7,1.5,0.7
		s1.1-0.3,1.5-0.7c5.1-5.9,22.3-26.7,31.3-46.4c2.1-4.6,3.1-9.5,3.1-14.7C84.8,16.1,68.7,0,48.9,0z M48.9,54.7
		c-10.3,0-18.7-8.4-18.7-18.7c0-10.3,8.4-18.7,18.7-18.7S67.5,25.7,67.5,36C67.5,46.3,59.2,54.7,48.9,54.7z"/>
</g>
</symbol><symbol id="003-email" viewbox="0 0 395 395">

<g>
	<polygon class="st0" points="395,320.1 395,74.9 258.8,197.5 	"/>
	<polygon class="st0" points="197.5,252.7 158.6,217.7 22.4,340.3 372.6,340.3 236.4,217.7 	"/>
	<polygon class="st0" points="372.6,54.7 22.4,54.7 197.5,212.3 	"/>
	<polygon class="st0" points="0,74.9 0,320.1 136.2,197.5 	"/>
</g>
</symbol><symbol id="003-placeholder" viewbox="0 0 56 56">

<circle class="st0" cx="28" cy="28" r="28"/>
<path class="st1" d="M28,13c-6.1,0-11,5-11,11.3c0,2.1,0.6,4.1,1.6,5.9l8.7,14.4c0.2,0.3,0.5,0.4,0.8,0.4c0,0,0,0,0,0
	c0.3,0,0.6-0.2,0.8-0.5L37.4,30c1-1.7,1.6-3.7,1.6-5.8C39,18,34.1,13,28,13z M35.9,29.1l-7.7,13.2l-7.9-13.1
	c-0.9-1.5-1.4-3.2-1.4-4.9c0-5.2,4.1-9.4,9.2-9.4s9.2,4.2,9.2,9.4C37.2,25.9,36.7,27.6,35.9,29.1z M28,18.6c-3,0-5.5,2.5-5.5,5.6
	c0,3.1,2.4,5.6,5.5,5.6c3.1,0,5.5-2.6,5.5-5.6C33.5,21.1,31,18.6,28,18.6z M28,28c-2,0-3.7-1.7-3.7-3.8c0-2.1,1.7-3.8,3.7-3.8
	s3.7,1.7,3.7,3.8C31.7,26.3,30.1,28,28,28z"/>
</symbol><symbol id="004-furniture" viewbox="0 0 56 56">

<circle class="st0" cx="28" cy="28" r="28"/>
<path class="st1" d="M39.4,16.8c-0.3-0.6-0.6-1.2-1-1.7c-1.2-1.3-2.8-2.1-4.5-2.1H22.2c-1.7,0-3.4,0.8-4.5,2.1
	c-0.4,0.5-0.8,1.1-1,1.7C15,17,13.8,18.6,14,20.3l1.5,14c0.1,0.9,0.6,1.7,1.3,2.2l-0.6,6.2c-0.1,0.7,0.2,1.3,0.7,1.8
	c0.4,0.3,0.8,0.5,1.2,0.5c0.2,0,0.4,0,0.6-0.1c0.6-0.2,1-0.6,1.2-1.2l2.3-6.6h11.4l2.3,6.6c0.2,0.6,0.7,1,1.2,1.2
	c0.2,0.1,0.4,0.1,0.6,0.1c0.4,0,0.9-0.2,1.2-0.5c0.5-0.4,0.8-1.1,0.7-1.8l-0.6-6.2c0.7-0.5,1.2-1.3,1.3-2.2l1.5-14
	C42.2,18.6,41,17,39.4,16.8z M19,16.4c0.8-0.9,2-1.5,3.2-1.5h11.6c1.2,0,2.4,0.5,3.2,1.5c0.2,0.2,0.4,0.5,0.5,0.8
	c-0.2,0.1-0.3,0.2-0.5,0.3c-0.6,0.5-1,1.3-1.1,2.1l0,0.3l-0.6,5.4H20.7l-0.6-5.4l0-0.3c-0.1-0.8-0.5-1.6-1.1-2.1
	c-0.1-0.1-0.3-0.2-0.5-0.3C18.6,16.9,18.8,16.6,19,16.4z M35.1,27.2l-0.4,3.6H21.3l-0.4-3.6H35.1z M18.3,43
	C18.3,43.1,18.2,43.1,18.3,43c-0.1,0.1-0.2,0.1-0.2,0.1c0,0-0.1-0.1-0.1-0.1l0.6-5.9h1.8L18.3,43z M37.9,43.1c0,0-0.1,0-0.1,0
	c0,0-0.1,0-0.1-0.1l-2.1-5.9h1.8L38,43C38,43,38,43.1,37.9,43.1z M40.2,20.1l-1.5,14c-0.1,0.6-0.6,1.1-1.2,1.1H18.5
	c-0.6,0-1.2-0.5-1.2-1.1l-1.5-14c-0.1-0.7,0.4-1.3,1.1-1.4c0,0,0.1,0,0.1,0c0.3,0,0.5,0.1,0.8,0.3c0.3,0.2,0.4,0.5,0.5,0.9l1.3,12.1
	c0.1,0.5,0.4,0.8,0.9,0.8h15.1c0.5,0,0.8-0.4,0.9-0.8l1.3-12.1c0-0.3,0.2-0.6,0.5-0.9c0.3-0.2,0.6-0.3,0.9-0.3c0,0,0,0,0,0
	C39.8,18.7,40.3,19.4,40.2,20.1z"/>
</symbol><symbol id="004-technology" viewbox="0 0 480.6 480.6">

<g>
	<g>
		<path class="st0" d="M365.4,317.9c-15.7-15.5-35.3-15.5-50.9,0c-11.9,11.8-23.8,23.6-35.5,35.6c-3.2,3.3-5.9,4-9.8,1.8
			c-7.7-4.2-15.9-7.6-23.3-12.2c-34.5-21.7-63.4-49.6-89-81c-12.7-15.6-24-32.3-31.9-51.1c-1.6-3.8-1.3-6.3,1.8-9.4
			c11.9-11.5,23.5-23.3,35.2-35.1c16.3-16.4,16.3-35.6-0.1-52.1c-9.3-9.4-18.6-18.6-27.9-28c-9.6-9.6-19.1-19.3-28.8-28.8
			c-15.7-15.3-35.3-15.3-50.9,0.1c-12,11.8-23.5,23.9-35.7,35.5C7.3,103.9,1.6,117,0.4,132.3c-1.9,24.9,4.2,48.4,12.8,71.3
			c17.6,47.4,44.4,89.5,76.9,128.1c43.9,52.2,96.3,93.5,157.6,123.3c27.6,13.4,56.2,23.7,87.3,25.4c21.4,1.2,40-4.2,54.9-20.9
			c10.2-11.4,21.7-21.8,32.5-32.7c16-16.2,16.1-35.8,0.2-51.8C403.6,355.9,384.5,336.9,365.4,317.9z"/>
		<path class="st0" d="M346.3,238.2l36.9-6.3c-5.8-33.9-21.8-64.6-46.1-89c-25.7-25.7-58.2-41.9-94-46.9l-5.2,37.1
			c27.7,3.9,52.9,16.4,72.8,36.3C329.5,188.2,341.8,212,346.3,238.2z"/>
		<path class="st0" d="M404,77.8C361.4,35.2,307.5,8.3,248,0l-5.2,37.1c51.4,7.2,98,30.5,134.8,67.2c34.9,34.9,57.8,79,66.1,127.5
			l36.9-6.3C470.9,169.3,444.4,118.3,404,77.8z"/>
	</g>
</g>
</symbol><symbol id="005-network" viewbox="0 0 15 17">
  
  <path id="_" data-name="&#xF1E0;" class="cls-1" d="M800.786,3095.62a3.113,3.113,0,0,1,2.277.93,3.194,3.194,0,0,1,0,4.52,3.252,3.252,0,0,1-4.554,0,3.059,3.059,0,0,1-.938-2.26,3.511,3.511,0,0,1,.067-0.69l-3.415-2.13a3.242,3.242,0,0,1-4.285-.23,3.192,3.192,0,0,1,0-4.52,3.242,3.242,0,0,1,4.285-.23l3.415-2.13a3.511,3.511,0,0,1-.067-0.69,3.059,3.059,0,0,1,.938-2.26,3.252,3.252,0,0,1,4.554,0,3.194,3.194,0,0,1,0,4.52,3.1,3.1,0,0,1-2.277.92,3.142,3.142,0,0,1-2.009-.69l-3.415,2.12a3.7,3.7,0,0,1,0,1.4l3.415,2.12A3.151,3.151,0,0,1,800.786,3095.62Z" transform="translate(-789 -3085)"/>
</symbol><symbol id="map_point" viewbox="0 0 40 64">

<path class="st0" d="M0,20.1C0,9,9,0,20,0s20,9,20,20.1C40,31,20,64,20,64S0,31,0,20.1z"/>
<path class="st1" d="M17,30.8c0,0.7,0,1.2,0.1,1.6c0.1,0.4,0.2,0.7,0.3,1c0.2,0.2,0.4,0.4,0.6,0.5c0.3,0.1,0.7,0.3,1.2,0.4v0.8h-7.5
	v-0.8c0.7-0.2,1.2-0.4,1.4-0.6c0.2-0.2,0.4-0.5,0.5-1c0.1-0.4,0.1-1,0.1-1.9V16c0-0.8,0-1.4-0.1-1.7c-0.1-0.4-0.2-0.6-0.3-0.8
	c-0.1-0.2-0.3-0.4-0.5-0.5c-0.2-0.1-0.6-0.3-1.1-0.4v-0.8h8.5c2.7,0,4.7,0.5,6,1.5c1.3,1,2,2.6,2,4.7c0,1.2-0.2,2.3-0.6,3.2
	c-0.4,0.9-1,1.7-1.8,2.3c-0.8,0.6-1.6,1-2.7,1.3c-1,0.3-2.1,0.4-3.2,0.4c-1.3,0-2.3,0-3-0.1V30.8z M17,23.7h2c1.3,0,2.4-0.2,3.2-0.5
	c0.8-0.3,1.5-0.9,1.9-1.7c0.4-0.8,0.7-1.8,0.7-3.1c0-1-0.1-1.8-0.4-2.5c-0.3-0.7-0.6-1.2-1.1-1.6c-0.5-0.4-1-0.7-1.7-0.8
	c-0.6-0.2-1.3-0.2-2.1-0.2c-1.1,0-2,0-2.6,0.1V23.7z"/>
</symbol><symbol id="signal" viewbox="0 0 56 56">

<circle class="st0" cx="28" cy="28" r="28"/>
<path class="st1" d="M19.9,27.3c-0.5,0.5-0.5,1.3,0,1.8c0.5,0.5,1.3,0.5,1.8,0c3.5-3.5,9.1-3.5,12.6,0c0.3,0.3,0.6,0.4,0.9,0.4
	c0.3,0,0.7-0.1,0.9-0.4c0.5-0.5,0.5-1.3,0-1.8C31.6,22.8,24.4,22.8,19.9,27.3z M23.4,30.7c-0.5,0.5-0.5,1.3,0,1.8
	c0.5,0.5,1.3,0.5,1.8,0c1.5-1.5,4.1-1.5,5.6,0c0.3,0.3,0.6,0.4,0.9,0.4s0.7-0.1,0.9-0.4c0.5-0.5,0.5-1.3,0-1.8
	C30.1,28.2,25.9,28.2,23.4,30.7z M28,33.6c0.9,0,1.7,0.8,1.7,1.7c0,0.9-0.8,1.7-1.7,1.7s-1.7-0.8-1.7-1.7
	C26.3,34.4,27.1,33.6,28,33.6z M39.6,23.7c-6.4-6.4-16.8-6.4-23.2,0c-0.5,0.5-0.5,1.3,0,1.8c0.5,0.5,1.3,0.5,1.8,0
	c5.4-5.4,14.2-5.4,19.6,0c0.3,0.3,0.6,0.4,0.9,0.4s0.7-0.1,0.9-0.4C40.1,25.1,40.1,24.2,39.6,23.7z"/>
</symbol><symbol id="star-half" viewbox="0 0 56 56">

<path class="st0" d="M28,3.3L28,3.3l7.1,14.3c0.6,1.2,1.7,2,3.1,2.2L54,22.1c0,0,0,0,0,0.1L42.6,33.3c-1,0.9-1.4,2.3-1.2,3.6
	l2.7,15.8c0,0,0,0-0.1,0c0,0,0,0,0,0l-14.1-7.4c-0.6-0.3-1.2-0.5-1.9-0.5c-0.7,0-1.3,0.2-1.9,0.5L12,52.7c0,0,0,0-0.1-0.1l2.7-15.7
	c0.2-1.3-0.2-2.7-1.2-3.6L2,22.2c0,0,0-0.1,0-0.1l15.8-2.3c1.3-0.2,2.5-1,3.1-2.2L28,3.3C28,3.3,28,3.3,28,3.3 M28,1.3
	c-0.7,0-1.5,0.4-1.8,1.1l-7.1,14.3c-0.3,0.6-0.9,1-1.5,1.1L1.8,20.1c-1.7,0.2-2.4,2.3-1.1,3.5L12,34.8c0.5,0.5,0.7,1.2,0.6,1.8
	L9.9,52.3c-0.2,1.3,0.8,2.4,2,2.4c0.3,0,0.6-0.1,1-0.2L27,47.1c0.3-0.2,0.6-0.2,1-0.2s0.7,0.1,1,0.2l14.1,7.4c0.3,0.2,0.6,0.2,1,0.2
	c1.2,0,2.3-1.1,2-2.4l-2.7-15.7c-0.1-0.7,0.1-1.3,0.6-1.8l11.4-11.1c1.2-1.2,0.5-3.3-1.1-3.5l-15.8-2.3c-0.7-0.1-1.2-0.5-1.5-1.1
	L29.8,2.4C29.5,1.7,28.7,1.3,28,1.3L28,1.3z"/>
<path class="st0" d="M28.2,1.3c-0.8-0.1-1.6,0.3-2,1.1l-7.1,14.3c-0.3,0.6-0.9,1-1.5,1.1L1.8,20.1c-1.7,0.2-2.4,2.3-1.1,3.5L12,34.8
	c0.5,0.5,0.7,1.2,0.6,1.8L9.9,52.3c-0.3,1.7,1.5,3,3,2.2L27,47.1c0.4-0.2,0.7-0.2,1.1-0.2V1.3z"/>
</symbol><symbol id="star-no" viewbox="0 0 56 56">

<path class="st0" d="M28,3.3L28,3.3l7.1,14.3c0.6,1.2,1.7,2,3.1,2.2L54,22.1c0,0,0,0,0,0.1L42.6,33.3c-1,0.9-1.4,2.3-1.2,3.6
	l2.7,15.8c0,0,0,0-0.1,0c0,0,0,0,0,0l-14.1-7.4c-0.6-0.3-1.2-0.5-1.9-0.5c-0.7,0-1.3,0.2-1.9,0.5L12,52.7c0,0,0,0-0.1-0.1l2.7-15.7
	c0.2-1.3-0.2-2.7-1.2-3.6L2,22.2c0,0,0-0.1,0-0.1l15.8-2.3c1.3-0.2,2.5-1,3.1-2.2L28,3.3C28,3.3,28,3.3,28,3.3 M28,1.3
	c-0.7,0-1.5,0.4-1.8,1.1l-7.1,14.3c-0.3,0.6-0.9,1-1.5,1.1L1.8,20.1c-1.7,0.2-2.4,2.3-1.1,3.5L12,34.8c0.5,0.5,0.7,1.2,0.6,1.8
	L9.9,52.3c-0.2,1.3,0.8,2.4,2,2.4c0.3,0,0.6-0.1,1-0.2L27,47.1c0.3-0.2,0.6-0.2,1-0.2s0.7,0.1,1,0.2l14.1,7.4c0.3,0.2,0.6,0.2,1,0.2
	c1.2,0,2.3-1.1,2-2.4l-2.7-15.7c-0.1-0.7,0.1-1.3,0.6-1.8l11.4-11.1c1.2-1.2,0.5-3.3-1.1-3.5l-15.8-2.3c-0.7-0.1-1.2-0.5-1.5-1.1
	L29.8,2.4C29.5,1.7,28.7,1.3,28,1.3L28,1.3z"/>
</symbol><symbol id="star" viewbox="0 0 56 56">

<path class="st0" d="M27,47.1l-14.1,7.4c-1.5,0.8-3.3-0.5-3-2.2l2.7-15.7c0.1-0.7-0.1-1.3-0.6-1.8L0.6,23.6
	c-1.2-1.2-0.5-3.3,1.1-3.5l15.8-2.3c0.7-0.1,1.2-0.5,1.5-1.1l7.1-14.3c0.8-1.5,2.9-1.5,3.7,0l7.1,14.3c0.3,0.6,0.9,1,1.5,1.1
	l15.8,2.3c1.7,0.2,2.4,2.3,1.1,3.5L44,34.8c-0.5,0.5-0.7,1.2-0.6,1.8l2.7,15.7c0.3,1.7-1.5,3-3,2.2L29,47.1
	C28.4,46.8,27.6,46.8,27,47.1z"/>
</symbol></svg>